<?xml version="1.0" encoding="UTF-8"?>
<!DOCTYPE svg PUBLIC "-//W3C//DTD SVG 1.1//EN" "http://www.w3.org/Graphics/SVG/1.1/DTD/svg11.dtd">
<svg xmlns="http://www.w3.org/2000/svg" version="1.1" width="514px" height="314px" style="shape-rendering:geometricPrecision; text-rendering:geometricPrecision; image-rendering:optimizeQuality; fill-rule:evenodd; clip-rule:evenodd" xmlns:xlink="http://www.w3.org/1999/xlink">
<g><path style="opacity:1" fill="#fefefe" d="M -0.5,-0.5 C 170.833,-0.5 342.167,-0.5 513.5,-0.5C 513.5,104.167 513.5,208.833 513.5,313.5C 342.167,313.5 170.833,313.5 -0.5,313.5C -0.5,208.833 -0.5,104.167 -0.5,-0.5 Z"/></g>
<g><path style="opacity:1" fill="#ced0d2" d="M 13.5,7.5 C 174.834,7.33333 336.167,7.5 497.5,8C 500.135,9.96053 501.969,12.4605 503,15.5C 503.667,109.5 503.667,203.5 503,297.5C 500.924,300.588 498.091,302.421 494.5,303C 333.753,303.997 173.087,303.664 12.5,302C 11,300.5 9.5,299 8,297.5C 7.33333,203.5 7.33333,109.5 8,15.5C 9.24334,12.4241 11.0767,9.75741 13.5,7.5 Z"/></g>
<g><path style="opacity:1" fill="#f9f9fa" d="M 14.5,9.5 C 175.914,9.00285 337.247,9.50285 498.5,11C 499.701,11.9025 500.535,13.0692 501,14.5C 501.667,108.5 501.667,202.5 501,296.5C 500.052,298.57 498.552,300.07 496.5,301C 335.087,301.997 173.753,301.664 12.5,300C 11.7894,298.745 10.956,297.579 10,296.5C 9.33333,202.5 9.33333,108.5 10,14.5C 11.025,12.313 12.525,10.6464 14.5,9.5 Z"/></g>
<g><path style="opacity:1" fill="#eff0f1" d="M 147.5,210.5 C 146.504,210.586 145.671,210.252 145,209.5C 144.833,182.667 144.667,155.833 144.5,129C 144.509,101.687 145.175,74.5205 146.5,47.5C 218.498,46.3334 290.498,46.1667 362.5,47C 363.354,48.0217 364.354,48.8551 365.5,49.5C 366.833,102.5 366.833,155.5 365.5,208.5C 364.713,209.242 364.047,210.075 363.5,211C 327.25,212.161 290.917,212.661 254.5,212.5C 218.494,212.5 182.827,211.833 147.5,210.5 Z"/></g>
<g><path style="opacity:1" fill="#ced0d2" d="M 361.5,48.5 C 361.685,50.1958 362.519,51.5291 364,52.5C 364.5,104.166 364.667,155.832 364.5,207.5C 363.764,209.229 362.43,210.229 360.5,210.5C 289.998,210.833 219.665,210.499 149.5,209.5C 149.092,208.357 148.425,207.357 147.5,206.5C 146.172,154.099 146.172,101.766 147.5,49.5C 218.762,48.5035 290.096,48.1701 361.5,48.5 Z"/></g>
<g><path style="opacity:1" fill="#d9dbdc" d="M 361.5,48.5 C 290.096,48.1701 218.762,48.5035 147.5,49.5C 182.827,48.1668 218.494,47.5001 254.5,47.5C 290.335,47.5 326.002,47.8333 361.5,48.5 Z"/></g>
<g><path style="opacity:1" fill="#d9dbdc" d="M 147.5,49.5 C 146.172,101.766 146.172,154.099 147.5,206.5C 148.425,207.357 149.092,208.357 149.5,209.5C 148.833,209.5 148.167,209.5 147.5,209.5C 146.883,209.389 146.383,209.056 146,208.5C 145.833,182 145.667,155.5 145.5,129C 145.5,102.158 146.167,75.6582 147.5,49.5 Z"/></g>
<g><path style="opacity:1" fill="#d8dadb" d="M 361.5,48.5 C 362.794,49.2899 363.961,50.2899 365,51.5C 365.832,103.668 365.665,155.668 364.5,207.5C 364.667,155.832 364.5,104.166 364,52.5C 362.519,51.5291 361.685,50.1958 361.5,48.5 Z"/></g>
<g><path style="opacity:1" fill="#f9f9fa" d="M 348.5,67.5 C 348.822,109.543 348.489,151.543 347.5,193.5C 346.508,193.328 345.842,193.662 345.5,194.5C 284.792,194.826 224.125,194.492 163.5,193.5C 162.511,151.543 162.178,109.543 162.5,67.5C 163.29,66.2058 164.29,65.0391 165.5,64C 225.5,63.3333 285.5,63.3333 345.5,64C 346.71,65.0391 347.71,66.2058 348.5,67.5 Z"/></g>
<g><path style="opacity:1" fill="#eeeff0" d="M 162.5,67.5 C 162.178,109.543 162.511,151.543 163.5,193.5C 162.833,193.167 162.167,192.833 161.5,192.5C 161.168,150.663 161.501,108.997 162.5,67.5 Z"/></g>
<g><path style="opacity:1" fill="#eeeff0" d="M 348.5,67.5 C 349.665,108.998 349.831,150.665 349,192.5C 348.617,193.056 348.117,193.389 347.5,193.5C 348.489,151.543 348.822,109.543 348.5,67.5 Z"/></g>
<g><path style="opacity:1" fill="#d8dadb" d="M 165.5,195.5 C 225.669,195.832 285.669,195.499 345.5,194.5C 345.842,193.662 346.508,193.328 347.5,193.5C 348.117,193.389 348.617,193.056 349,192.5C 349.831,150.665 349.665,108.998 348.5,67.5C 347.71,66.2058 346.71,65.0391 345.5,64C 285.5,63.3333 225.5,63.3333 165.5,64C 164.29,65.0391 163.29,66.2058 162.5,67.5C 161.501,108.997 161.168,150.663 161.5,192.5C 160.169,150.331 160.169,107.998 161.5,65.5C 162.5,65.1667 163.167,64.5 163.5,63.5C 224.833,62.1667 286.167,62.1667 347.5,63.5C 348.145,64.646 348.978,65.646 350,66.5C 350.667,108.833 350.667,151.167 350,193.5C 349.308,194.025 348.808,194.692 348.5,195.5C 287.335,196.832 226.335,196.832 165.5,195.5 Z"/></g>
<g><path style="opacity:1" fill="#f0f0f1" d="M 240.5,106.5 C 241.602,102.253 241.768,97.9196 241,93.5C 240.617,92.944 240.117,92.6107 239.5,92.5C 238.864,90.2054 237.531,88.5387 235.5,87.5C 235.489,85.9826 234.823,84.8159 233.5,84C 227.553,80.8971 221.553,80.7304 215.5,83.5C 215.5,82.5 215.5,81.5 215.5,80.5C 227.057,78.0148 235.89,81.6814 242,91.5C 242.167,94 242.333,96.5 242.5,99C 242.475,101.929 241.809,104.429 240.5,106.5 Z"/></g>
<g><path style="opacity:1" fill="#dbddde" d="M 235.5,87.5 C 231.644,85.1657 227.477,83.4991 223,82.5C 217.988,83.376 213.488,85.376 209.5,88.5C 210.268,85.4384 212.268,83.7717 215.5,83.5C 221.553,80.7304 227.553,80.8971 233.5,84C 234.823,84.8159 235.489,85.9826 235.5,87.5 Z"/></g>
<g><path style="opacity:1" fill="#ced0d2" d="M 235.5,87.5 C 237.531,88.5387 238.864,90.2054 239.5,92.5C 240.833,97.1667 240.833,101.833 239.5,106.5C 238.4,107.605 237.733,108.938 237.5,110.5C 235.456,111.031 233.789,112.198 232.5,114C 229.5,114.5 226.5,115 223.5,115.5C 219.502,114.169 215.502,112.836 211.5,111.5C 210.886,109.717 209.72,108.384 208,107.5C 206.265,102.2 206.098,96.8665 207.5,91.5C 207.427,89.9731 208.094,88.9731 209.5,88.5C 213.488,85.376 217.988,83.376 223,82.5C 227.477,83.4991 231.644,85.1657 235.5,87.5 Z"/></g>
<g><path style="opacity:1" fill="#e2e3e5" d="M 239.5,92.5 C 240.117,92.6107 240.617,92.944 241,93.5C 241.768,97.9196 241.602,102.253 240.5,106.5C 240.167,106.5 239.833,106.5 239.5,106.5C 240.833,101.833 240.833,97.1667 239.5,92.5 Z"/></g>
<g><path style="opacity:1" fill="#ebeced" d="M 207.5,91.5 C 206.098,96.8665 206.265,102.2 208,107.5C 209.72,108.384 210.886,109.717 211.5,111.5C 209.883,110.962 208.216,110.629 206.5,110.5C 204.574,105.396 204.074,100.062 205,94.5C 205.377,93.0577 206.21,92.0577 207.5,91.5 Z"/></g>
<g><path style="opacity:1" fill="#d8dadc" d="M 287.5,121.5 C 285.163,119.334 282.663,117.334 280,115.5C 277.316,120.002 274.149,124.002 270.5,127.5C 272.579,123.672 274.412,119.672 276,115.5C 277.041,113.415 278.541,111.748 280.5,110.5C 284.102,113.421 286.436,117.087 287.5,121.5 Z"/></g>
<g><path style="opacity:1" fill="#dfe0e2" d="M 237.5,110.5 C 236.375,112.129 235.041,113.629 233.5,115C 228.014,117.725 222.347,118.058 216.5,116C 214.34,115.004 212.673,113.504 211.5,111.5C 215.502,112.836 219.502,114.169 223.5,115.5C 226.5,115 229.5,114.5 232.5,114C 233.789,112.198 235.456,111.031 237.5,110.5 Z"/></g>
<g><path style="opacity:1" fill="#ced0d2" d="M 287.5,121.5 C 288.833,123.167 290.167,124.833 291.5,126.5C 295.792,135.586 300.625,144.253 306,152.5C 308.615,156.783 311.615,160.783 315,164.5C 315.608,166.154 316.108,167.821 316.5,169.5C 296.845,170.833 276.845,171.5 256.5,171.5C 236.5,171.333 216.5,171.167 196.5,171C 199.147,166.864 202.147,163.031 205.5,159.5C 208.926,157.32 211.926,154.653 214.5,151.5C 216.146,149.188 218.146,147.188 220.5,145.5C 222.592,147.605 224.925,149.272 227.5,150.5C 233.148,155.324 239.148,159.657 245.5,163.5C 246.287,165.104 247.62,165.771 249.5,165.5C 251.645,160.543 254.312,155.877 257.5,151.5C 260.171,149.227 261.505,146.227 261.5,142.5C 262.5,142.5 263.5,142.5 264.5,142.5C 264.983,139.342 265.983,136.342 267.5,133.5C 268.5,131.5 269.5,129.5 270.5,127.5C 274.149,124.002 277.316,120.002 280,115.5C 282.663,117.334 285.163,119.334 287.5,121.5 Z"/></g>
<g><path style="opacity:1" fill="#dcddde" d="M 267.5,133.5 C 265.983,136.342 264.983,139.342 264.5,142.5C 263.5,142.5 262.5,142.5 261.5,142.5C 262.783,138.909 264.783,135.909 267.5,133.5 Z"/></g>
<g><path style="opacity:1" fill="#dbddde" d="M 261.5,142.5 C 261.505,146.227 260.171,149.227 257.5,151.5C 257.924,148.082 259.258,145.082 261.5,142.5 Z"/></g>
<g><path style="opacity:1" fill="#efeff0" d="M 227.5,150.5 C 224.925,149.272 222.592,147.605 220.5,145.5C 218.146,147.188 216.146,149.188 214.5,151.5C 210.641,153.239 207.641,155.905 205.5,159.5C 205.167,159.5 204.833,159.5 204.5,159.5C 204.281,158.325 204.614,157.325 205.5,156.5C 209.683,152.44 214.016,148.607 218.5,145C 222.656,144.681 225.656,146.514 227.5,150.5 Z"/></g>
<g><path style="opacity:1" fill="#eeeff0" d="M 227.5,150.5 C 230.562,151.666 233.562,153.166 236.5,155C 238.599,157.767 241.266,159.767 244.5,161C 245.252,161.671 245.586,162.504 245.5,163.5C 239.148,159.657 233.148,155.324 227.5,150.5 Z"/></g>
<g><path style="opacity:1" fill="#dedfe0" d="M 214.5,151.5 C 211.926,154.653 208.926,157.32 205.5,159.5C 207.641,155.905 210.641,153.239 214.5,151.5 Z"/></g>
<g><path style="opacity:1" fill="#d4d6d8" d="M 204.5,159.5 C 204.833,159.5 205.167,159.5 205.5,159.5C 202.147,163.031 199.147,166.864 196.5,171C 216.5,171.167 236.5,171.333 256.5,171.5C 276.845,171.5 296.845,170.833 316.5,169.5C 316.833,169.5 317.167,169.5 317.5,169.5C 317.5,170.5 317.5,171.5 317.5,172.5C 276.495,172.833 235.495,172.5 194.5,171.5C 194.863,170.817 195.196,170.15 195.5,169.5C 196.833,167.833 198.167,166.167 199.5,164.5C 200.833,162.5 202.5,160.833 204.5,159.5 Z"/></g>
<g><path style="opacity:1" fill="#f0f1f2" d="M 291.5,126.5 C 292.496,126.414 293.329,126.748 294,127.5C 294.333,128.833 294.667,130.167 295,131.5C 301.334,140.815 307.667,150.148 314,159.5C 315.257,163.257 317.257,166.591 320,169.5C 320.494,171.134 320.66,172.801 320.5,174.5C 277.499,174.667 234.499,174.5 191.5,174C 190.269,172.817 190.269,171.651 191.5,170.5C 193.653,167.662 196.32,165.662 199.5,164.5C 198.167,166.167 196.833,167.833 195.5,169.5C 193.879,169.787 192.879,170.787 192.5,172.5C 234.833,173.833 277.167,173.833 319.5,172.5C 319.058,171.261 318.391,170.261 317.5,169.5C 317.167,169.5 316.833,169.5 316.5,169.5C 316.108,167.821 315.608,166.154 315,164.5C 311.615,160.783 308.615,156.783 306,152.5C 300.625,144.253 295.792,135.586 291.5,126.5 Z"/></g>
<g><path style="opacity:1" fill="#dedfe1" d="M 195.5,169.5 C 195.196,170.15 194.863,170.817 194.5,171.5C 235.495,172.5 276.495,172.833 317.5,172.5C 317.5,171.5 317.5,170.5 317.5,169.5C 318.391,170.261 319.058,171.261 319.5,172.5C 277.167,173.833 234.833,173.833 192.5,172.5C 192.879,170.787 193.879,169.787 195.5,169.5 Z"/></g>
<g><path style="opacity:1" fill="#e9ebeb" d="M 163.5,193.5 C 224.125,194.492 284.792,194.826 345.5,194.5C 285.669,195.499 225.669,195.832 165.5,195.5C 164.5,195.167 163.833,194.5 163.5,193.5 Z"/></g>
<g><path style="opacity:1" fill="#dedfe1" d="M 147.5,210.5 C 147.5,210.167 147.5,209.833 147.5,209.5C 148.167,209.5 148.833,209.5 149.5,209.5C 219.665,210.499 289.998,210.833 360.5,210.5C 289.598,211.831 218.598,211.831 147.5,210.5 Z"/></g>
<g><path style="opacity:1" fill="#d6d7d9" d="M 342.5,243.5 C 346.634,242.515 350.968,242.182 355.5,242.5C 355.737,243.791 355.404,244.791 354.5,245.5C 350.971,243.577 346.971,242.911 342.5,243.5 Z"/></g>
<g><path style="opacity:1" fill="#c5c7ca" d="M 156.5,242.5 C 157.5,242.5 158.5,242.5 159.5,242.5C 159.334,247.179 159.501,251.845 160,256.5C 163,259.167 166,259.167 169,256.5C 169.499,251.845 169.666,247.179 169.5,242.5C 170.5,242.5 171.5,242.5 172.5,242.5C 172.666,247.511 172.499,252.511 172,257.5C 170.471,260.516 167.971,261.849 164.5,261.5C 161.067,261.867 158.567,260.534 157,257.5C 156.501,252.511 156.334,247.511 156.5,242.5 Z"/></g>
<g><path style="opacity:1" fill="#c8cacd" d="M 176.5,242.5 C 179.85,242.335 183.183,242.502 186.5,243C 190.977,245.686 191.644,249.186 188.5,253.5C 185.916,254.393 183.249,254.726 180.5,254.5C 180.5,256.833 180.5,259.167 180.5,261.5C 179.167,261.5 177.833,261.5 176.5,261.5C 176.5,255.167 176.5,248.833 176.5,242.5 Z"/></g>
<g><path style="opacity:1" fill="#c6c8cb" d="M 193.5,243.5 C 194.5,243.5 195.5,243.5 196.5,243.5C 196.179,248.695 196.513,253.695 197.5,258.5C 200.167,258.5 202.833,258.5 205.5,258.5C 205.5,259.5 205.5,260.5 205.5,261.5C 201.5,261.5 197.5,261.5 193.5,261.5C 193.5,255.5 193.5,249.5 193.5,243.5 Z"/></g>
<g><path style="opacity:1" fill="#dddee0" d="M 193.5,243.5 C 194.568,242.566 195.901,242.232 197.5,242.5C 197.5,247.833 197.5,253.167 197.5,258.5C 196.513,253.695 196.179,248.695 196.5,243.5C 195.5,243.5 194.5,243.5 193.5,243.5 Z"/></g>
<g><path style="opacity:1" fill="#c8c9cc" d="M 212.5,242.5 C 221.987,241.819 226.154,246.153 225,255.5C 222.081,261.025 217.581,262.858 211.5,261C 204.677,254.427 205.01,248.26 212.5,242.5 Z"/></g>
<g><path style="opacity:1" fill="#c6c8cb" d="M 233.5,242.5 C 234.978,242.238 236.311,242.571 237.5,243.5C 239.638,249.247 241.971,254.914 244.5,260.5C 242.124,261.817 240.457,261.15 239.5,258.5C 236.572,257.516 233.572,257.183 230.5,257.5C 230.592,261.071 228.926,262.238 225.5,261C 228.267,254.862 230.934,248.696 233.5,242.5 Z"/></g>
<g><path style="opacity:1" fill="#c8cacc" d="M 246.5,242.5 C 251.449,241.959 256.116,242.792 260.5,245C 265.157,251.403 264.157,256.737 257.5,261C 253.848,261.499 250.182,261.665 246.5,261.5C 246.5,255.167 246.5,248.833 246.5,242.5 Z"/></g>
<g><path style="opacity:1" fill="#c6c7ca" d="M 273.5,243.5 C 274.5,243.5 275.5,243.5 276.5,243.5C 276.5,249.5 276.5,255.5 276.5,261.5C 275.5,261.5 274.5,261.5 273.5,261.5C 273.5,255.5 273.5,249.5 273.5,243.5 Z"/></g>
<g><path style="opacity:1" fill="#dddee0" d="M 273.5,243.5 C 274.568,242.566 275.901,242.232 277.5,242.5C 277.823,249.022 277.49,255.355 276.5,261.5C 276.5,255.5 276.5,249.5 276.5,243.5C 275.5,243.5 274.5,243.5 273.5,243.5 Z"/></g>
<g><path style="opacity:1" fill="#dddee0" d="M 285.5,243.5 C 284.167,243.5 282.833,243.5 281.5,243.5C 281.5,249.5 281.5,255.5 281.5,261.5C 280.51,255.355 280.177,249.022 280.5,242.5C 282.415,242.216 284.081,242.549 285.5,243.5 Z"/></g>
<g><path style="opacity:1" fill="#c6c8ca" d="M 297.5,261.5 C 297.666,257.154 297.499,252.821 297,248.5C 295.961,249.244 295.461,250.244 295.5,251.5C 294.216,255.014 292.55,258.347 290.5,261.5C 288.398,257.628 286.564,253.628 285,249.5C 284.501,253.486 284.334,257.486 284.5,261.5C 283.5,261.5 282.5,261.5 281.5,261.5C 281.5,255.5 281.5,249.5 281.5,243.5C 282.833,243.5 284.167,243.5 285.5,243.5C 287.303,247.106 289.136,250.773 291,254.5C 292.402,250.793 293.902,247.126 295.5,243.5C 297.045,242.548 298.712,242.215 300.5,242.5C 300.5,248.833 300.5,255.167 300.5,261.5C 299.5,261.5 298.5,261.5 297.5,261.5 Z"/></g>
<g><path style="opacity:1" fill="#c6c8cb" d="M 309.5,242.5 C 311.144,242.286 312.644,242.62 314,243.5C 316.67,249.345 318.836,255.345 320.5,261.5C 317.5,261.833 316.167,260.5 316.5,257.5C 313.482,257.335 310.482,257.502 307.5,258C 306.663,259.011 306.33,260.178 306.5,261.5C 305.022,261.762 303.689,261.429 302.5,260.5C 304.846,254.479 307.18,248.479 309.5,242.5 Z"/></g>
<g><path style="opacity:1" fill="#c7c9cb" d="M 327.5,242.5 C 331.819,241.799 335.486,242.966 338.5,246C 337.975,246.692 337.308,247.192 336.5,247.5C 331.935,244.269 328.101,244.936 325,249.5C 324.053,256.885 327.22,259.719 334.5,258C 335.337,256.989 335.67,255.822 335.5,254.5C 333.5,254.5 331.5,254.5 329.5,254.5C 329.5,253.5 329.5,252.5 329.5,251.5C 332.5,251.5 335.5,251.5 338.5,251.5C 339.186,260.3 335.186,263.467 326.5,261C 319.677,254.427 320.01,248.26 327.5,242.5 Z"/></g>
<g><path style="opacity:1" fill="#c4c6c9" d="M 342.5,243.5 C 346.971,242.911 350.971,243.577 354.5,245.5C 351.5,245.5 348.5,245.5 345.5,245.5C 345.5,247.167 345.5,248.833 345.5,250.5C 348.5,250.5 351.5,250.5 354.5,250.5C 354.5,251.5 354.5,252.5 354.5,253.5C 351.5,253.5 348.5,253.5 345.5,253.5C 345.5,255.167 345.5,256.833 345.5,258.5C 348.833,258.5 352.167,258.5 355.5,258.5C 355.5,259.5 355.5,260.5 355.5,261.5C 351.167,261.5 346.833,261.5 342.5,261.5C 342.5,255.5 342.5,249.5 342.5,243.5 Z"/></g>
<g><path style="opacity:1" fill="#f7f7f8" d="M 213.5,245.5 C 220.809,245.666 223.309,249.333 221,256.5C 213.201,260.704 209.535,258.371 210,249.5C 211.032,247.973 212.199,246.64 213.5,245.5 Z"/></g>
<g><path style="opacity:1" fill="#f7f7f8" d="M 180.5,245.5 C 182.527,245.338 184.527,245.505 186.5,246C 187.833,247.667 187.833,249.333 186.5,251C 184.527,251.495 182.527,251.662 180.5,251.5C 180.5,249.5 180.5,247.5 180.5,245.5 Z"/></g>
<g><path style="opacity:1" fill="#e0e1e3" d="M 256.5,246.5 C 254.5,246.5 252.5,246.5 250.5,246.5C 250.5,250.5 250.5,254.5 250.5,258.5C 249.515,254.366 249.182,250.032 249.5,245.5C 252.059,245.198 254.393,245.532 256.5,246.5 Z"/></g>
<g><path style="opacity:1" fill="#f9f9fa" d="M 256.5,246.5 C 260.481,250.214 260.481,254.047 256.5,258C 254.527,258.495 252.527,258.662 250.5,258.5C 250.5,254.5 250.5,250.5 250.5,246.5C 252.5,246.5 254.5,246.5 256.5,246.5 Z"/></g>
<g><path style="opacity:1" fill="#f5f6f7" d="M 237.5,253.5 C 235.833,254.833 234.167,254.833 232.5,253.5C 234.177,244.189 235.844,244.189 237.5,253.5 Z"/></g>
<g><path style="opacity:1" fill="#f6f6f7" d="M 314.5,254.5 C 312.219,254.923 310.552,254.256 309.5,252.5C 309.848,250.287 310.681,248.287 312,246.5C 312.941,249.154 313.774,251.821 314.5,254.5 Z"/></g>
<g><path style="opacity:1" fill="#e4e5e6" d="M 297.5,261.5 C 296.833,258.167 296.167,254.833 295.5,251.5C 295.461,250.244 295.961,249.244 297,248.5C 297.499,252.821 297.666,257.154 297.5,261.5 Z"/></g>
<g><path style="opacity:1" fill="#dedfe1" d="M 232.5,253.5 C 234.167,254.833 235.833,254.833 237.5,253.5C 238.043,253.56 238.376,253.893 238.5,254.5C 236.167,255.833 233.833,255.833 231.5,254.5C 231.624,253.893 231.957,253.56 232.5,253.5 Z"/></g>
<g><path style="opacity:1" fill="#e1e2e4" d="M 309.5,252.5 C 310.552,254.256 312.219,254.923 314.5,254.5C 312.735,255.461 310.735,255.795 308.5,255.5C 308.263,254.209 308.596,253.209 309.5,252.5 Z"/></g>
</svg>
